<?xml version="1.0" ?>
<svg data-name="Design Convert" id="Design_Convert" viewBox="0 0 64 64" xmlns="http://www.w3.org/2000/svg">
    <defs>
        <style>.cls-1{fill:#010101;}</style>
    </defs>
    <title/>
    <path class="cls-1"
          d="M46.83,55a1,1,0,0,1-.45-.11L32,47.6,17.62,54.89a1,1,0,0,1-1.05-.09,1,1,0,0,1-.39-1l2.74-15.38L7.32,27.54a1,1,0,0,1-.27-1,1,1,0,0,1,.81-.68l16.07-2.25,7.18-14a1,1,0,0,1,1.78,0l7.18,14,16.07,2.25a1,1,0,0,1,.81.68,1,1,0,0,1-.27,1l-11.6,10.9,2.74,15.38a1,1,0,0,1-.39,1A1,1,0,0,1,46.83,55ZM32,45.48a1,1,0,0,1,.45.11l13,6.61L43,38.26a1,1,0,0,1,.3-.91l10.47-9.84-14.51-2a1,1,0,0,1-.75-.53L32,12.19,25.47,24.94a1,1,0,0,1-.75.53l-14.51,2,10.47,9.84a1,1,0,0,1,.3.91L18.5,52.2l13.05-6.61A1,1,0,0,1,32,45.48Z"/>
</svg>